<?xml version="1.0" standalone="no"?><!DOCTYPE svg PUBLIC "-//W3C//DTD SVG 1.1//EN" "http://www.w3.org/Graphics/SVG/1.1/DTD/svg11.dtd"><svg t="1758875701387" class="icon" viewBox="0 0 1024 1024" version="1.1" xmlns="http://www.w3.org/2000/svg" p-id="10175" xmlns:xlink="http://www.w3.org/1999/xlink" width="200" height="200"><path d="M512 512m-512 0a512 512 0 1 0 1024 0 512 512 0 1 0-1024 0Z" fill="#1BC1FA" p-id="10176"></path><path d="M637.5 496.5c0-46.603 30.721-86.467 74.188-102.732-35.617-19.581-93.413-35.996-155.91-58.861-108.88-39.854-268.159-112.549-268.159-112.549-11.336-3.006-12.891 8.025-12.891 8.025-3.612 44.112 24.221 116.004 38.563 132.043 14.397 16.146 229.796 82.171 229.796 82.171s-165.648-33.538-205.67-45.123c-40.023-11.579-27.334 12.882-27.334 12.882 8.228 44.57 46.791 95.306 77.187 100.067 30.39 4.764 158.523 2.859 158.523 2.859s-25.521 3.012-67.148 8.618c-30.743 4.113-69.81 9.031-79.938 12.889-23.876 9.019 17.25 45.268 17.25 45.268 60.982 55.444 93.382 36.492 93.382 36.492 23.972-7.716 44.239-13.381 61.339-17.493l-21.166 88.381h60.931L576.841 823.09l147.845-196.467h-77.387l16.057-27.978 0.243 0.603s5.067-8.143 12.708-20.731c-23.832-20.23-38.807-49.481-38.807-82.017z" fill="#FFFFFF" p-id="10177"></path><path d="M740.033 465.149h-0.098c3.608-7.721 6.215-14.188 7.223-18.547 5.215-21.99-9.008-38.286-35.471-52.833C668.221 410.034 637.5 449.897 637.5 496.5c0 32.536 14.975 61.787 38.805 82.017 17.538-28.896 48.655-81.258 63.329-112.615l0.399-0.753z" fill="#FFFFFF" opacity=".4" p-id="10178"></path></svg>